<svg width="128" height="117" viewBox="0 0 128 117" fill="none" xmlns="http://www.w3.org/2000/svg">
<rect width="128" height="117" fill="#F2F2F2"/>
<path d="M51.6251 34.384V40.48H48.3611V46H40.4891V40.48H27.7691V33.04L39.3371 15.184H47.7851L35.4011 34.384H40.4891V28.288H48.3611V34.384H51.6251ZM65.4892 38.944V22.24C65.4892 21.536 65.0892 21.184 64.2892 21.184H62.9932C62.1932 21.184 61.7932 21.536 61.7932 22.24V38.944C61.7932 39.648 62.1932 40 62.9932 40H64.2892C65.0892 40 65.4892 39.648 65.4892 38.944ZM73.8892 21.136V40.048C73.8892 44.016 71.5372 46 66.8332 46H60.4492C55.7452 46 53.3932 44.016 53.3932 40.048V21.136C53.3932 17.168 55.7452 15.184 60.4492 15.184H66.8332C71.5372 15.184 73.8892 17.168 73.8892 21.136ZM89.5361 38.944V22.24C89.5361 21.536 89.1361 21.184 88.3361 21.184H87.0401C86.2401 21.184 85.8401 21.536 85.8401 22.24V38.944C85.8401 39.648 86.2401 40 87.0401 40H88.3361C89.1361 40 89.5361 39.648 89.5361 38.944ZM97.9361 21.136V40.048C97.9361 44.016 95.5841 46 90.8801 46H84.4961C79.7921 46 77.4401 44.016 77.4401 40.048V21.136C77.4401 17.168 79.7921 15.184 84.4961 15.184H90.8801C95.5841 15.184 97.9361 17.168 97.9361 21.136ZM35.2898 63.018H35.6138C37.2098 63.018 38.0078 63.762 38.0078 65.25V69.768C38.0078 71.256 37.2098 72 35.6138 72H35.2898C34.3658 72 33.8198 71.616 33.6518 70.848V72H30.6458V59.958H33.7058V63.99C33.9338 63.342 34.4618 63.018 35.2898 63.018ZM34.9478 69.354V65.664C34.9478 65.4 34.7978 65.268 34.4978 65.268H34.1918C33.8678 65.268 33.7058 65.448 33.7058 65.808V69.21C33.7058 69.57 33.8678 69.75 34.1918 69.75H34.4978C34.7978 69.75 34.9478 69.618 34.9478 69.354ZM39.2051 62.118V59.958H42.3731V62.118H39.2051ZM42.3191 72H39.2591V63.018H42.3191V72ZM47.9351 63.018H50.9411V72.09C50.9411 73.578 50.0591 74.322 48.2951 74.322H43.9931V72.162H47.4311C47.7311 72.162 47.8811 72.03 47.8811 71.766V70.488C47.6531 71.136 47.1251 71.46 46.2971 71.46H45.9731C44.3771 71.46 43.5791 70.716 43.5791 69.228V65.25C43.5791 63.762 44.3771 63.018 45.9731 63.018H46.2971C47.2211 63.018 47.7671 63.402 47.9351 64.17V63.018ZM47.0891 69.21H47.3951C47.7191 69.21 47.8811 69.03 47.8811 68.67V65.808C47.8811 65.448 47.7191 65.268 47.3951 65.268H47.0891C46.7891 65.268 46.6391 65.4 46.6391 65.664V68.814C46.6391 69.078 46.7891 69.21 47.0891 69.21ZM60.6199 63.018H60.9439C62.5399 63.018 63.3379 63.762 63.3379 65.25V69.768C63.3379 71.256 62.5399 72 60.9439 72H60.6199C59.6959 72 59.1499 71.616 58.9819 70.848V72H55.9759V59.958H59.0359V63.99C59.2639 63.342 59.7919 63.018 60.6199 63.018ZM60.2779 69.354V65.664C60.2779 65.4 60.1279 65.268 59.8279 65.268H59.5219C59.1979 65.268 59.0359 65.448 59.0359 65.808V69.21C59.0359 69.57 59.1979 69.75 59.5219 69.75H59.8279C60.1279 69.75 60.2779 69.618 60.2779 69.354ZM67.0551 63.018H69.3411C70.2531 63.018 70.9071 63.21 71.3031 63.594C71.6991 63.978 71.8971 64.53 71.8971 65.25V69.768C71.8971 70.488 71.6991 71.04 71.3031 71.424C70.9071 71.808 70.2531 72 69.3411 72H67.0551C66.1431 72 65.4891 71.808 65.0931 71.424C64.6971 71.04 64.4991 70.488 64.4991 69.768V65.25C64.4991 64.53 64.6971 63.978 65.0931 63.594C65.4891 63.21 66.1431 63.018 67.0551 63.018ZM68.8911 69.48V65.538C68.8911 65.274 68.7411 65.142 68.4411 65.142H67.9551C67.6551 65.142 67.5051 65.274 67.5051 65.538V69.48C67.5051 69.744 67.6551 69.876 67.9551 69.876H68.4411C68.7411 69.876 68.8911 69.744 68.8911 69.48ZM78.3492 67.356L80.5812 72H77.4852L76.5132 69.336L75.6312 72H72.6432L74.6952 67.41L72.5352 63.018H75.7392L76.5132 65.52L77.2872 63.018H80.3292L78.3492 67.356ZM83.7719 63.018H85.9679C87.7319 63.018 88.6139 63.762 88.6139 65.25V68.31H84.0239V69.498C84.0239 69.762 84.1739 69.894 84.4739 69.894H85.2659C85.5659 69.894 85.7159 69.75 85.7159 69.462V68.958H88.6139V69.768C88.6139 71.256 87.7319 72 85.9679 72H83.7719C82.0079 72 81.1259 71.256 81.1259 69.768V65.25C81.1259 63.762 82.0079 63.018 83.7719 63.018ZM84.0239 66.654H85.7159V65.52C85.7159 65.256 85.5659 65.124 85.2659 65.124H84.4739C84.1739 65.124 84.0239 65.256 84.0239 65.52V66.654ZM93.6486 69.624V68.904C93.6486 68.64 93.4986 68.508 93.1986 68.508H92.1006C90.3726 68.508 89.5086 67.77 89.5086 66.294V65.25C89.5086 63.762 90.3906 63.018 92.1546 63.018H93.8286C95.5926 63.018 96.4746 63.762 96.4746 65.25V66.006H93.5586V65.394C93.5586 65.13 93.4086 64.998 93.1086 64.998H92.9286C92.6286 64.998 92.4786 65.13 92.4786 65.394V66.186C92.4786 66.45 92.6286 66.582 92.9286 66.582H94.0266C94.9506 66.582 95.6106 66.774 96.0066 67.158C96.4146 67.53 96.6186 68.07 96.6186 68.778V69.768C96.6186 71.256 95.7366 72 93.9726 72H92.2086C90.4446 72 89.5626 71.256 89.5626 69.768V69.03H92.5326V69.624C92.5326 69.888 92.6826 70.02 92.9826 70.02H93.1986C93.4986 70.02 93.6486 69.888 93.6486 69.624Z" fill="black"/>
<path d="M31.3008 79.05V79.68H29.5508V78.82C29.5508 77.9933 30.0408 77.58 31.0208 77.58H32.2508C33.2308 77.58 33.7208 77.9933 33.7208 78.82V79.6C33.7208 80.18 33.5608 80.5567 33.2408 80.73C33.4274 80.81 33.5541 80.9333 33.6208 81.1C33.6874 81.26 33.7208 81.48 33.7208 81.76V82.76C33.7208 83.5867 33.2308 84 32.2508 84H31.0208C30.0408 84 29.5508 83.5867 29.5508 82.76V81.9H31.3008V82.53C31.3008 82.6767 31.3841 82.75 31.5508 82.75H31.7508C31.9174 82.75 32.0008 82.6767 32.0008 82.53V81.54C32.0008 81.3933 31.9174 81.32 31.7508 81.32H30.9408V80.17H31.7508C31.9174 80.17 32.0008 80.0967 32.0008 79.95V79.05C32.0008 78.9033 31.9174 78.83 31.7508 78.83H31.5508C31.3841 78.83 31.3008 78.9033 31.3008 79.05ZM34.4664 84V82.36H36.1864V84H34.4664ZM38.5659 79.05V79.78H36.8159V78.82C36.8159 77.9933 37.3059 77.58 38.2859 77.58H39.4959C40.4893 77.58 40.9859 77.9933 40.9859 78.82V79.74C40.9859 80.0733 40.9293 80.36 40.8159 80.6C40.7093 80.8333 40.5326 81.0867 40.2859 81.36L39.0459 82.75H40.9859V84H36.8659V82.86L38.7659 80.82C38.9659 80.6133 39.0993 80.4367 39.1659 80.29C39.2326 80.1367 39.2659 79.95 39.2659 79.73V79.05C39.2659 78.9033 39.1826 78.83 39.0159 78.83H38.8159C38.6493 78.83 38.5659 78.9033 38.5659 79.05ZM44.1634 82.53V79.05C44.1634 78.9033 44.0801 78.83 43.9134 78.83H43.6434C43.4768 78.83 43.3934 78.9033 43.3934 79.05V82.53C43.3934 82.6767 43.4768 82.75 43.6434 82.75H43.9134C44.0801 82.75 44.1634 82.6767 44.1634 82.53ZM45.9134 78.82V82.76C45.9134 83.5867 45.4234 84 44.4434 84H43.1134C42.1334 84 41.6434 83.5867 41.6434 82.76V78.82C41.6434 77.9933 42.1334 77.58 43.1134 77.58H44.4434C45.4234 77.58 45.9134 77.9933 45.9134 78.82ZM49.1732 82.53V79.05C49.1732 78.9033 49.0899 78.83 48.9232 78.83H48.6532C48.4865 78.83 48.4032 78.9033 48.4032 79.05V82.53C48.4032 82.6767 48.4865 82.75 48.6532 82.75H48.9232C49.0899 82.75 49.1732 82.6767 49.1732 82.53ZM50.9232 78.82V82.76C50.9232 83.5867 50.4332 84 49.4532 84H48.1232C47.1432 84 46.6532 83.5867 46.6532 82.76V78.82C46.6532 77.9933 47.1432 77.58 48.1232 77.58H49.4532C50.4332 77.58 50.9232 77.9933 50.9232 78.82ZM51.693 84V82.36H53.413V84H51.693ZM56.7025 82.53V79.05C56.7025 78.9033 56.6192 78.83 56.4525 78.83H56.1825C56.0158 78.83 55.9325 78.9033 55.9325 79.05V82.53C55.9325 82.6767 56.0158 82.75 56.1825 82.75H56.4525C56.6192 82.75 56.7025 82.6767 56.7025 82.53ZM58.4525 78.82V82.76C58.4525 83.5867 57.9625 84 56.9825 84H55.6525C54.6725 84 54.1825 83.5867 54.1825 82.76V78.82C54.1825 77.9933 54.6725 77.58 55.6525 77.58H56.9825C57.9625 77.58 58.4525 77.9933 58.4525 78.82ZM61.7123 82.53V79.05C61.7123 78.9033 61.6289 78.83 61.4623 78.83H61.1923C61.0256 78.83 60.9423 78.9033 60.9423 79.05V82.53C60.9423 82.6767 61.0256 82.75 61.1923 82.75H61.4623C61.6289 82.75 61.7123 82.6767 61.7123 82.53ZM63.4623 78.82V82.76C63.4623 83.5867 62.9723 84 61.9923 84H60.6623C59.6823 84 59.1923 83.5867 59.1923 82.76V78.82C59.1923 77.9933 59.6823 77.58 60.6623 77.58H61.9923C62.9723 77.58 63.4623 77.9933 63.4623 78.82ZM66.722 82.53V79.05C66.722 78.9033 66.6387 78.83 66.472 78.83H66.202C66.0354 78.83 65.952 78.9033 65.952 79.05V82.53C65.952 82.6767 66.0354 82.75 66.202 82.75H66.472C66.6387 82.75 66.722 82.6767 66.722 82.53ZM68.472 78.82V82.76C68.472 83.5867 67.982 84 67.002 84H65.672C64.692 84 64.202 83.5867 64.202 82.76V78.82C64.202 77.9933 64.692 77.58 65.672 77.58H67.002C67.982 77.58 68.472 77.9933 68.472 78.82ZM73.3938 82.68V82.28C73.3938 82.1333 73.3104 82.06 73.1438 82.06H72.5338C71.5738 82.06 71.0938 81.65 71.0938 80.83V80.25C71.0938 79.4233 71.5838 79.01 72.5638 79.01H73.4938C74.4738 79.01 74.9638 79.4233 74.9638 80.25V80.67H73.3438V80.33C73.3438 80.1833 73.2604 80.11 73.0938 80.11H72.9938C72.8271 80.11 72.7438 80.1833 72.7438 80.33V80.77C72.7438 80.9167 72.8271 80.99 72.9938 80.99H73.6038C74.1171 80.99 74.4838 81.0967 74.7038 81.31C74.9304 81.5167 75.0438 81.8167 75.0438 82.21V82.76C75.0438 83.5867 74.5538 84 73.5738 84H72.5938C71.6138 84 71.1238 83.5867 71.1238 82.76V82.35H72.7738V82.68C72.7738 82.8267 72.8571 82.9 73.0238 82.9H73.1438C73.3104 82.9 73.3938 82.8267 73.3938 82.68ZM78.2269 80.26H77.5969V82.53C77.5969 82.6767 77.6802 82.75 77.8469 82.75H78.2169V84H77.3669C76.3869 84 75.8969 83.5867 75.8969 82.76V80.26H75.3469V79.01H75.8969V78.03H77.5969V79.01H78.2269V80.26ZM81.4742 78.96H81.6242V80.44H81.0542C80.6342 80.44 80.4242 80.6667 80.4242 81.12V84H78.7242V79.01H80.3942V79.78C80.4476 79.5267 80.5676 79.3267 80.7542 79.18C80.9409 79.0333 81.1809 78.96 81.4742 78.96ZM84.3938 79.01H86.0638V84H84.3638V83.46C84.2372 83.82 83.9438 84 83.4838 84H83.3038C82.4172 84 81.9738 83.5867 81.9738 82.76V80.25C81.9738 79.4233 82.4172 79.01 83.3038 79.01H83.4838C83.9972 79.01 84.3005 79.2233 84.3938 79.65V79.01ZM83.9238 82.75H84.0938C84.2738 82.75 84.3638 82.65 84.3638 82.45V80.56C84.3638 80.36 84.2738 80.26 84.0938 80.26H83.9238C83.7572 80.26 83.6738 80.3333 83.6738 80.48V82.53C83.6738 82.6767 83.7572 82.75 83.9238 82.75ZM91.639 79.01H93.199L92.129 84H90.439L89.829 81.06L89.209 84H87.519L86.509 79.01H88.089L88.459 82.16L89.109 79.01H90.599L91.179 82.14L91.639 79.01ZM95.7961 82.68V82.28C95.7961 82.1333 95.7128 82.06 95.5461 82.06H94.9361C93.9761 82.06 93.4961 81.65 93.4961 80.83V80.25C93.4961 79.4233 93.9861 79.01 94.9661 79.01H95.8961C96.8761 79.01 97.3661 79.4233 97.3661 80.25V80.67H95.7461V80.33C95.7461 80.1833 95.6628 80.11 95.4961 80.11H95.3961C95.2294 80.11 95.1461 80.1833 95.1461 80.33V80.77C95.1461 80.9167 95.2294 80.99 95.3961 80.99H96.0061C96.5194 80.99 96.8861 81.0967 97.1061 81.31C97.3328 81.5167 97.4461 81.8167 97.4461 82.21V82.76C97.4461 83.5867 96.9561 84 95.9761 84H94.9961C94.0161 84 93.5261 83.5867 93.5261 82.76V82.35H95.1761V82.68C95.1761 82.8267 95.2594 82.9 95.4261 82.9H95.5461C95.7128 82.9 95.7961 82.8267 95.7961 82.68Z" fill="black"/>
<path d="M34.5342 97.764H31.3842V95.91C31.3842 95.646 31.2342 95.514 30.9342 95.514H30.3042C30.0042 95.514 29.8542 95.646 29.8542 95.91V102.534C29.8542 102.798 30.0042 102.93 30.3042 102.93H30.9342C31.2342 102.93 31.3842 102.798 31.3842 102.534V100.752H34.5342V102.768C34.5342 104.256 33.6522 105 31.8882 105H29.3502C27.5862 105 26.7042 104.256 26.7042 102.768V95.676C26.7042 94.188 27.5862 93.444 29.3502 93.444H31.8882C33.6522 93.444 34.5342 94.188 34.5342 95.676V97.764ZM38.2983 93.444H40.9623C42.7263 93.444 43.6083 94.188 43.6083 95.676V102.768C43.6083 104.256 42.7263 105 40.9623 105H38.2983C36.5343 105 35.6523 104.256 35.6523 102.768V95.676C35.6523 94.188 36.5343 93.444 38.2983 93.444ZM40.4583 102.354V96.09C40.4583 95.826 40.3083 95.694 40.0083 95.694H39.2523C38.9523 95.694 38.8023 95.826 38.8023 96.09V102.354C38.8023 102.618 38.9523 102.75 39.2523 102.75H40.0083C40.3083 102.75 40.4583 102.618 40.4583 102.354ZM50.2616 93.444H53.1416V105H50.4416L47.8676 98.934V105H44.9876V93.444H47.6876L50.2616 99.618V93.444ZM61.5512 93.444V95.694H59.3192V105H56.1692V95.694H53.9552V93.444H61.5512ZM68.2408 105L67.8808 103.272H65.1088L64.7308 105H61.6348L64.6048 93.444H68.4388L71.4088 105H68.2408ZM65.5948 101.04H67.3948L66.5128 96.882L65.5948 101.04ZM72.1282 93.444H75.2782V105H72.1282V93.444ZM81.9901 93.444H84.8701V105H82.1701L79.5961 98.934V105H76.7161V93.444H79.4161L81.9901 99.618V93.444ZM89.4638 102.75H93.4058V105H86.3138V93.444H93.2438V95.694H89.4638V98.052H92.7218V100.302H89.4638V102.75ZM97.5497 100.896V105H94.3997V93.444H99.7457C101.51 93.444 102.392 94.188 102.392 95.676V98.664C102.392 99.804 101.876 100.506 100.844 100.77L102.968 105H99.5837L97.7477 100.896H97.5497ZM98.7917 95.694H97.5497V98.754H98.7917C99.0917 98.754 99.2417 98.622 99.2417 98.358V96.09C99.2417 95.826 99.0917 95.694 98.7917 95.694Z" fill="#219653"/>
</svg>
