<svg width="17" height="18" viewBox="0 0 17 18" fill="none" xmlns="http://www.w3.org/2000/svg">
<path d="M15.1786 0H1.82143C1.33836 0 0.875068 0.203188 0.533484 0.564866C0.1919 0.926543 0 1.41708 0 1.92857L0 16.0714C0 16.5829 0.1919 17.0735 0.533484 17.4351C0.875068 17.7968 1.33836 18 1.82143 18H7.02958V11.8804H4.63895V9H7.02958V6.80464C7.02958 4.30754 8.43359 2.92821 10.584 2.92821C11.6139 2.92821 12.6908 3.12268 12.6908 3.12268V5.57357H11.5042C10.3351 5.57357 9.97042 6.34179 9.97042 7.12969V9H12.5804L12.163 11.8804H9.97042V18H15.1786C15.6616 18 16.1249 17.7968 16.4665 17.4351C16.8081 17.0735 17 16.5829 17 16.0714V1.92857C17 1.41708 16.8081 0.926543 16.4665 0.564866C16.1249 0.203188 15.6616 0 15.1786 0Z" fill="#219653"/>
</svg>
