<svg width="20" height="23" viewBox="0 0 20 23" fill="none" xmlns="http://www.w3.org/2000/svg">
<path d="M16.4 11.59C16.12 11.43 15.83 11.3 15.54 11.19C15.83 11.08 16.12 10.95 16.4 10.79C18.32 9.68 19.39 7.67 19.4 5.6C17.61 4.57 15.33 4.49 13.4 5.6C13.12 5.76 12.86 5.95 12.62 6.14C12.67 5.83 12.7 5.51 12.7 5.19C12.7 2.97 11.49 1.04 9.7 0C7.91 1.04 6.7 2.97 6.7 5.19C6.7 5.51 6.73 5.83 6.78 6.14C6.54 5.94 6.28 5.75 6 5.59C4.08 4.48 1.8 4.56 0 5.59C0 7.66 1.07 9.67 3 10.78C3.28 10.94 3.57 11.07 3.86 11.18C3.57 11.29 3.28 11.42 3 11.58C1.08 12.69 0.01 14.7 0 16.77C1.79 17.8 4.07 17.88 6 16.77C6.28 16.61 6.54 16.42 6.78 16.23C6.73 16.55 6.7 16.87 6.7 17.19C6.7 19.41 7.91 21.34 9.7 22.38C11.49 21.34 12.7 19.41 12.7 17.19C12.7 16.87 12.67 16.55 12.62 16.24C12.86 16.44 13.12 16.62 13.4 16.78C15.32 17.89 17.6 17.81 19.4 16.78C19.39 14.71 18.32 12.7 16.4 11.59ZM9.7 15.19C7.49 15.19 5.7 13.4 5.7 11.19C5.7 8.98 7.49 7.19 9.7 7.19C11.91 7.19 13.7 8.98 13.7 11.19C13.7 13.4 11.91 15.19 9.7 15.19Z" fill="#219653"/>
</svg>
