<svg width="19" height="18" viewBox="0 0 19 18" fill="none" xmlns="http://www.w3.org/2000/svg">
<path d="M9.50212 4.38503C6.8063 4.38503 4.63185 6.4455 4.63185 9C4.63185 11.5545 6.8063 13.615 9.50212 13.615C12.1979 13.615 14.3724 11.5545 14.3724 9C14.3724 6.4455 12.1979 4.38503 9.50212 4.38503ZM9.50212 12.0003C7.76001 12.0003 6.33581 10.6548 6.33581 9C6.33581 7.3452 7.75577 5.99967 9.50212 5.99967C11.2485 5.99967 12.6684 7.3452 12.6684 9C12.6684 10.6548 11.2442 12.0003 9.50212 12.0003ZM15.7076 4.19625C15.7076 4.79471 15.1989 5.27268 14.5716 5.27268C13.94 5.27268 13.4356 4.79069 13.4356 4.19625C13.4356 3.60181 13.9443 3.11983 14.5716 3.11983C15.1989 3.11983 15.7076 3.60181 15.7076 4.19625ZM18.9332 5.28874C18.8612 3.84681 18.5136 2.56956 17.3988 1.51724C16.2883 0.464911 14.9404 0.135557 13.4187 0.0632601C11.8504 -0.0210867 7.14964 -0.0210867 5.58132 0.0632601C4.06386 0.131541 2.71595 0.460895 1.60117 1.51322C0.486392 2.56555 0.143056 3.8428 0.0667596 5.28473C-0.0222532 6.77084 -0.0222532 11.2251 0.0667596 12.7113C0.138818 14.1532 0.486392 15.4304 1.60117 16.4828C2.71595 17.5351 4.05962 17.8644 5.58132 17.9367C7.14964 18.0211 11.8504 18.0211 13.4187 17.9367C14.9404 17.8685 16.2883 17.5391 17.3988 16.4828C18.5094 15.4304 18.8569 14.1532 18.9332 12.7113C19.0223 11.2251 19.0223 6.77485 18.9332 5.28874ZM16.9071 14.3058C16.5765 15.093 15.9365 15.6995 15.1015 16.0168C13.851 16.4868 10.8839 16.3783 9.50212 16.3783C8.1203 16.3783 5.14897 16.4828 3.90279 16.0168C3.072 15.7036 2.43196 15.0971 2.0971 14.3058C1.60117 13.1209 1.71562 10.3094 1.71562 9C1.71562 7.69062 1.60541 4.87504 2.0971 3.69419C2.42772 2.90695 3.06776 2.30046 3.90279 1.98315C5.15321 1.51322 8.1203 1.62167 9.50212 1.62167C10.8839 1.62167 13.8553 1.51724 15.1015 1.98315C15.9322 2.29644 16.5723 2.90293 16.9071 3.69419C17.4031 4.87906 17.2886 7.69062 17.2886 9C17.2886 10.3094 17.4031 13.125 16.9071 14.3058Z" fill="#219653"/>
</svg>
