<svg width="41" height="60" viewBox="0 0 41 60" fill="none" xmlns="http://www.w3.org/2000/svg">
<path d="M1.25304 54.0371C1.07403 53.9138 1.01809 53.6672 1.14116 53.4766C1.26423 53.2973 1.51036 53.2413 1.70055 53.3645C1.81243 53.443 1.9355 53.5215 2.06975 53.5999C2.98715 54.1604 3.84862 54.4406 4.55345 54.4406C5.19116 54.4406 5.71699 54.194 6.04144 53.712C6.06381 53.6784 6.08619 53.656 6.08619 53.6336C6.17569 53.4766 6.254 53.3197 6.29876 53.1628C6.38826 52.8377 6.37707 52.5015 6.24282 52.1988C6.10856 51.8738 5.82887 51.5712 5.40373 51.3134C5.12403 51.1452 4.76602 50.9883 4.34088 50.865C3.25566 50.5624 2.46133 50.1252 2.025 49.5536C1.55511 48.9147 1.52155 48.1525 2.025 47.2222C2.36063 46.6057 3.04309 46.2246 3.91575 46.1574C4.66533 46.1013 5.57155 46.2807 6.48895 46.7514C6.69033 46.8523 6.76865 47.0989 6.66795 47.2895C6.56726 47.4912 6.32113 47.5697 6.13094 47.4688C5.34779 47.0653 4.5982 46.9196 3.98287 46.9644C3.38992 47.0092 2.93121 47.2446 2.74102 47.6145C2.40539 48.231 2.40539 48.713 2.68508 49.0828C2.99834 49.5088 3.65842 49.845 4.56464 50.1028C5.05691 50.2373 5.47086 50.4279 5.81768 50.6408C6.38826 50.9883 6.76865 51.4254 6.97003 51.8962C7.1826 52.3782 7.20497 52.905 7.05953 53.3982C6.9924 53.6223 6.89171 53.8577 6.75746 54.0707C6.72389 54.1155 6.70152 54.1604 6.69033 54.1828C6.20925 54.9001 5.44848 55.2588 4.53108 55.2588C3.6808 55.2588 2.68508 54.945 1.63342 54.3061C1.53273 54.2164 1.39848 54.1379 1.25304 54.0371Z" fill="#EA501F"/>
<path d="M8.40207 46.5383C8.40207 46.3254 8.58107 46.1572 8.80483 46.1572C9.02859 46.1572 9.20759 46.3254 9.20759 46.5383V54.8664C9.20759 55.0793 9.02859 55.2475 8.80483 55.2475C8.58107 55.2475 8.40207 55.0793 8.40207 54.8664V46.5383Z" fill="#EA501F"/>
<path d="M9.22997 51.7281C9.08453 51.8962 8.8384 51.9298 8.65939 51.7841C8.49157 51.6384 8.45801 51.3918 8.60345 51.2125C9.21878 50.4615 9.91243 50.0019 10.5949 49.8002C11.0872 49.6545 11.5682 49.6432 11.9822 49.7553C12.4185 49.8786 12.7989 50.1252 13.0674 50.5063C13.3247 50.865 13.4702 51.3245 13.4702 51.8738V54.8553C13.4702 55.0794 13.2912 55.2588 13.0674 55.2588C12.8436 55.2588 12.6646 55.0794 12.6646 54.8553V51.8738C12.6646 51.4927 12.5751 51.19 12.4185 50.9659C12.2619 50.7529 12.0493 50.6072 11.7808 50.5287C11.5011 50.4503 11.1767 50.4615 10.8298 50.5624C10.2928 50.7305 9.73342 51.1116 9.22997 51.7281Z" fill="#EA501F"/>
<path d="M17.4195 49.6768C18.1914 49.6768 18.8851 49.9906 19.3885 50.495C19.892 50.9994 20.2052 51.6943 20.2052 52.4677C20.2052 53.2411 19.892 53.936 19.3885 54.4404C18.8851 54.9448 18.1914 55.2587 17.4195 55.2587C16.6475 55.2587 15.9539 54.9448 15.4504 54.4404C14.947 53.936 14.6337 53.2411 14.6337 52.4677C14.6337 51.6943 14.947 50.9994 15.4504 50.495C15.9539 49.9906 16.6587 49.6768 17.4195 49.6768ZM18.8291 51.0554C18.4711 50.6967 17.9677 50.4726 17.4195 50.4726C16.8713 50.4726 16.379 50.6967 16.0098 51.0554C15.6518 51.4141 15.428 51.9185 15.428 52.4677C15.428 53.0169 15.6518 53.5213 16.0098 53.88C16.3678 54.2387 16.8713 54.4629 17.4195 54.4629C17.9677 54.4629 18.4599 54.2387 18.8291 53.88C19.1871 53.5213 19.4109 53.0169 19.4109 52.4677C19.4109 51.9185 19.1871 51.4141 18.8291 51.0554Z" fill="#EA501F"/>
<path d="M21.3464 50.0803C21.3464 49.8561 21.5254 49.6768 21.7492 49.6768C21.9729 49.6768 22.1519 49.8561 22.1519 50.0803V50.5847C22.1855 50.551 22.2079 50.5174 22.2414 50.495C22.7449 49.9906 23.4385 49.6768 24.2105 49.6768C24.9825 49.6768 25.6761 49.9906 26.1796 50.495C26.683 50.9994 26.9963 51.6943 26.9963 52.4677C26.9963 53.2411 26.683 53.9361 26.1796 54.4404C25.6761 54.9448 24.9825 55.2587 24.2105 55.2587C23.4385 55.2587 22.7449 54.9448 22.2414 54.4404C22.2079 54.4068 22.1855 54.3732 22.1519 54.3508V58.016C22.1519 58.2402 21.9729 58.4195 21.7492 58.4195C21.5254 58.4195 21.3464 58.2402 21.3464 58.016V50.0803ZM25.609 51.0554C25.251 50.6967 24.7475 50.4726 24.1993 50.4726C23.6511 50.4726 23.1588 50.6967 22.7896 51.0554C22.4316 51.4141 22.2079 51.9185 22.2079 52.4677C22.2079 53.0169 22.4316 53.5213 22.7896 53.88C23.1477 54.2387 23.6511 54.4629 24.1993 54.4629C24.7475 54.4629 25.2398 54.2387 25.609 53.88C25.967 53.5213 26.1907 53.0169 26.1907 52.4677C26.1907 51.9185 25.967 51.4141 25.609 51.0554Z" fill="#EA501F"/>
<path d="M30.7778 49.6768C31.4602 49.6768 32.0867 49.9458 32.5454 50.4165C32.9258 50.7976 33.0825 51.1787 33.2167 51.5822C33.5635 52.7143 32.9035 52.6695 32.7021 52.6695H28.9989C29.0325 52.9385 29.0996 53.1851 29.1779 53.4092C29.3233 53.7567 29.5359 54.0145 29.8044 54.1939C30.0841 54.3732 30.4421 54.4629 30.8561 54.4629C31.3036 54.4629 31.8294 54.3396 32.4112 54.093C32.6126 54.0033 32.8475 54.1042 32.937 54.3059C33.0265 54.5077 32.9258 54.7431 32.7245 54.8327C32.0532 55.113 31.4267 55.2475 30.8673 55.2587C30.2967 55.2699 29.7932 55.1354 29.3793 54.8664C28.9653 54.5974 28.6073 54.2275 28.4395 53.7119C28.0591 52.5798 28.0479 51.4589 29.0101 50.4165C29.4576 49.9346 30.0953 49.6768 30.7778 49.6768ZM31.9861 50.9882C31.6616 50.6743 31.2365 50.4838 30.7778 50.4838C30.3191 50.4838 29.8939 50.6743 29.5695 50.9882C29.3345 51.2236 29.1443 51.515 29.0437 51.8512H32.5231C32.4 51.515 32.221 51.2236 31.9861 50.9882Z" fill="#EA501F"/>
<path d="M36.8863 49.6768C37.5688 49.6768 38.1953 49.9458 38.654 50.4165C39.0344 50.7976 39.191 51.1787 39.3253 51.5822C39.6721 52.7143 39.012 52.6695 38.8106 52.6695H35.1075C35.141 52.9385 35.2081 53.1851 35.2865 53.4092C35.4319 53.7567 35.6445 54.0145 35.913 54.1939C36.1927 54.3732 36.5507 54.4629 36.9646 54.4629C37.4122 54.4629 37.938 54.3396 38.5198 54.093C38.7211 54.0033 38.9561 54.1042 39.0456 54.3059C39.1351 54.5077 39.0344 54.7431 38.833 54.8327C38.1617 55.113 37.5352 55.2475 36.9758 55.2587C36.4052 55.2699 35.9018 55.1354 35.4878 54.8664C35.0739 54.5974 34.7159 54.2275 34.5481 53.7119C34.1677 52.5798 34.1565 51.4589 35.1186 50.4165C35.5662 49.9346 36.2039 49.6768 36.8863 49.6768ZM38.0946 50.9882C37.7702 50.6743 37.345 50.4838 36.8863 50.4838C36.4276 50.4838 36.0025 50.6743 35.678 50.9882C35.4431 51.2236 35.2529 51.515 35.1522 51.8512H38.6316C38.5086 51.515 38.3296 51.2236 38.0946 50.9882Z" fill="#EA501F"/>
<path d="M4.08357 13.2376H12.508C12.7653 10.3794 13.5597 7.81261 14.7008 5.82867C16.2112 3.20584 18.3593 1.5918 20.787 1.5918C23.2148 1.5918 25.3517 3.21705 26.8732 5.82867C28.0144 7.8014 28.8087 10.3794 29.066 13.2376H37.4793C38.475 13.2376 39.37 14.0558 39.2917 15.0534L37.6024 38.6701C37.3898 41.6292 35.5326 43.3217 32.8363 43.3217H8.73771C5.73937 43.3217 4.1507 41.2256 3.97169 38.6701L2.27114 15.0646C2.20401 14.067 3.08785 13.2376 4.08357 13.2376ZM14.6113 13.2376H26.9403C26.6942 10.7605 26.0118 8.56359 25.0384 6.88229C23.9196 4.92077 22.3981 3.69903 20.787 3.69903C19.1648 3.69903 17.6544 4.92077 16.5133 6.8935C15.5399 8.56359 14.8687 10.7717 14.6113 13.2376Z" fill="#EA501F"/>
<path d="M14.6673 35.0383C14.2757 34.7693 14.175 34.2425 14.4435 33.8502C14.712 33.4579 15.2379 33.357 15.6294 33.626C15.8756 33.7942 16.1329 33.9623 16.4126 34.1304C18.3816 35.3298 20.1941 35.9238 21.7044 35.9238C23.0694 35.9238 24.1769 35.4082 24.8818 34.3658C24.9265 34.2874 24.9713 34.2425 24.9825 34.2089C25.1839 33.8838 25.3293 33.5364 25.43 33.2001C25.6314 32.5052 25.5978 31.7878 25.3181 31.1377C25.016 30.454 24.4343 29.7927 23.5281 29.2434C22.9239 28.8736 22.1743 28.5485 21.2681 28.3019C18.9634 27.6518 17.2629 26.7327 16.3455 25.4998C15.3385 24.1435 15.2602 22.507 16.3343 20.5231C17.0503 19.2117 18.5159 18.3935 20.3731 18.2477C21.9729 18.1245 23.8973 18.5055 25.8551 19.5031C26.2803 19.7161 26.4481 20.2317 26.2243 20.6576C26.0006 21.0835 25.4971 21.2517 25.072 21.0275C23.405 20.1756 21.8163 19.8506 20.4961 19.9515C19.2319 20.0523 18.2698 20.5455 17.8446 21.3301C17.1286 22.6415 17.1398 23.6727 17.7216 24.4573C18.3928 25.3652 19.7913 26.0714 21.738 26.6206C22.7897 26.9233 23.6847 27.3043 24.4231 27.7527C25.6426 28.4925 26.4593 29.4228 26.8956 30.4316C27.3431 31.474 27.399 32.5724 27.097 33.6485C26.9627 34.1304 26.7502 34.6124 26.4593 35.0832C26.3921 35.184 26.3474 35.2625 26.3138 35.3185C25.2734 36.8541 23.6735 37.6163 21.7268 37.6275C19.9032 37.6275 17.7775 36.955 15.5399 35.5876C15.2602 35.4306 14.9694 35.2513 14.6673 35.0383Z" fill="white"/>
</svg>
