<svg width="46" height="46" viewBox="0 0 46 46" fill="none" xmlns="http://www.w3.org/2000/svg">
<g filter="url(#filter0_d_1_2173)">
<path d="M18.25 19C15.6375 19 13.5 21.1375 13.5 23.75C13.5 26.3625 15.6375 28.5 18.25 28.5C20.8625 28.5 23 26.3625 23 23.75C23 21.1375 20.8625 19 18.25 19ZM8.75 9.5C6.1375 9.5 4 11.6375 4 14.25C4 16.8625 6.1375 19 8.75 19C11.3625 19 13.5 16.8625 13.5 14.25C13.5 11.6375 11.3625 9.5 8.75 9.5ZM8.75 28.5C6.1375 28.5 4 30.6375 4 33.25C4 35.8625 6.1375 38 8.75 38C11.3625 38 13.5 35.8625 13.5 33.25C13.5 30.6375 11.3625 28.5 8.75 28.5ZM37.25 9.5C39.8625 9.5 42 7.3625 42 4.75C42 2.1375 39.8625 0 37.25 0C34.6375 0 32.5 2.1375 32.5 4.75C32.5 7.3625 34.6375 9.5 37.25 9.5ZM27.75 28.5C25.1375 28.5 23 30.6375 23 33.25C23 35.8625 25.1375 38 27.75 38C30.3625 38 32.5 35.8625 32.5 33.25C32.5 30.6375 30.3625 28.5 27.75 28.5ZM37.25 19C34.6375 19 32.5 21.1375 32.5 23.75C32.5 26.3625 34.6375 28.5 37.25 28.5C39.8625 28.5 42 26.3625 42 23.75C42 21.1375 39.8625 19 37.25 19ZM27.75 9.5C25.1375 9.5 23 11.6375 23 14.25C23 16.8625 25.1375 19 27.75 19C30.3625 19 32.5 16.8625 32.5 14.25C32.5 11.6375 30.3625 9.5 27.75 9.5ZM18.25 0C15.6375 0 13.5 2.1375 13.5 4.75C13.5 7.3625 15.6375 9.5 18.25 9.5C20.8625 9.5 23 7.3625 23 4.75C23 2.1375 20.8625 0 18.25 0Z" fill="#2F80ED"/>
</g>
<defs>
<filter id="filter0_d_1_2173" x="0" y="0" width="46" height="46" filterUnits="userSpaceOnUse" color-interpolation-filters="sRGB">
<feFlood flood-opacity="0" result="BackgroundImageFix"/>
<feColorMatrix in="SourceAlpha" type="matrix" values="0 0 0 0 0 0 0 0 0 0 0 0 0 0 0 0 0 0 127 0" result="hardAlpha"/>
<feOffset dy="4"/>
<feGaussianBlur stdDeviation="2"/>
<feColorMatrix type="matrix" values="0 0 0 0 0.580833 0 0 0 0 0.759531 0 0 0 0 1 0 0 0 1 0"/>
<feBlend mode="normal" in2="BackgroundImageFix" result="effect1_dropShadow_1_2173"/>
<feBlend mode="normal" in="SourceGraphic" in2="effect1_dropShadow_1_2173" result="shape"/>
</filter>
</defs>
</svg>
