<svg width="74" height="47" viewBox="0 0 74 47" fill="none" xmlns="http://www.w3.org/2000/svg">
<g filter="url(#filter0_d_1_2174)">
<path d="M47.7995 15.7378C46.9402 6.92115 39.4922 0 30.4688 0C22.9921 0 16.375 4.8248 13.9974 11.8321C8.35413 12.6649 4 17.5185 4 23.4058C4 29.8676 9.24213 35.123 15.7162 35.123H45.6797C51.0937 35.123 55.5052 30.7291 55.5052 25.3011C55.5052 20.62 52.1823 16.6856 47.7995 15.7378ZM45.6797 30.729H15.7162C11.6771 30.729 8.38278 27.4551 8.38278 23.4057C8.38278 19.3563 11.6771 16.0824 15.7162 16.0824C17.664 16.0824 19.4974 16.8577 20.8724 18.2363C22.9378 20.307 26.0592 17.1756 23.9948 15.106C22.4766 13.6126 20.6146 12.5787 18.6094 12.0618C20.6719 7.46684 25.3126 4.39393 30.4689 4.39393C37.6589 4.39393 43.5027 10.2525 43.5027 17.4322C43.5027 18.8395 43.2735 20.2179 42.8437 21.539C41.9185 24.3932 46.1682 25.5779 46.9974 22.9175C47.2838 22.056 47.513 21.1657 47.6563 20.2754C49.6615 21.0509 51.1224 23.0037 51.1224 25.3011C51.1224 28.2879 48.6875 30.729 45.6797 30.729ZM70 25.3011C70 29.8675 68.6822 34.2614 66.1614 38.0235C65.7318 38.6554 65.0443 39 64.3281 39C62.6399 39 61.5215 37.0473 62.5234 35.5824C64.5286 32.5382 65.6172 28.9771 65.6172 25.3011C65.6172 21.6252 64.5287 18.0641 62.5234 15.0486C60.9038 12.6805 64.5265 10.1487 66.1614 12.6076C68.6823 16.3409 70 20.7349 70 25.3011ZM62.6667 25.3011C62.6667 28.5752 61.7214 31.7342 59.8881 34.4625C59.4584 35.0943 58.7709 35.4101 58.0548 35.4101C56.2752 35.4101 55.2591 33.4416 56.2501 31.9927C57.5965 30.0111 58.284 27.7135 58.284 25.3011C58.284 22.9175 57.5965 20.5913 56.2501 18.6097C54.6195 16.2256 58.2167 13.7249 59.8881 16.1686C61.7213 18.8681 62.6667 22.0272 62.6667 25.3011Z" fill="#2F80ED"/>
</g>
<defs>
<filter id="filter0_d_1_2174" x="0" y="0" width="74" height="47" filterUnits="userSpaceOnUse" color-interpolation-filters="sRGB">
<feFlood flood-opacity="0" result="BackgroundImageFix"/>
<feColorMatrix in="SourceAlpha" type="matrix" values="0 0 0 0 0 0 0 0 0 0 0 0 0 0 0 0 0 0 127 0" result="hardAlpha"/>
<feOffset dy="4"/>
<feGaussianBlur stdDeviation="2"/>
<feColorMatrix type="matrix" values="0 0 0 0 0.596078 0 0 0 0 0.768627 0 0 0 0 1 0 0 0 1 0"/>
<feBlend mode="normal" in2="BackgroundImageFix" result="effect1_dropShadow_1_2174"/>
<feBlend mode="normal" in="SourceGraphic" in2="effect1_dropShadow_1_2174" result="shape"/>
</filter>
</defs>
</svg>
