<svg width="44" height="48" viewBox="0 0 44 48" fill="none" xmlns="http://www.w3.org/2000/svg">
<g filter="url(#filter0_d_1_2319)">
<path d="M33.375 27.5733C31.8867 27.5733 30.555 28.1608 29.5367 29.0812L15.5737 20.9542C15.6717 20.5037 15.75 20.0533 15.75 19.5833C15.75 19.1133 15.6717 18.6629 15.5737 18.2125L29.38 10.1637C30.4375 11.1429 31.8279 11.75 33.375 11.75C36.6258 11.75 39.25 9.12583 39.25 5.875C39.25 2.62417 36.6258 0 33.375 0C30.1242 0 27.5 2.62417 27.5 5.875C27.5 6.345 27.5783 6.79542 27.6763 7.24583L13.87 15.2946C12.8125 14.3154 11.4221 13.7083 9.875 13.7083C6.62417 13.7083 4 16.3325 4 19.5833C4 22.8342 6.62417 25.4583 9.875 25.4583C11.4221 25.4583 12.8125 24.8512 13.87 23.8721L27.8133 32.0187C27.7154 32.43 27.6567 32.8608 27.6567 33.2917C27.6567 36.4446 30.2221 39.01 33.375 39.01C36.5279 39.01 39.0933 36.4446 39.0933 33.2917C39.0933 30.1387 36.5279 27.5733 33.375 27.5733Z" fill="#2F80ED"/>
</g>
<defs>
<filter id="filter0_d_1_2319" x="0" y="0" width="43.25" height="47.01" filterUnits="userSpaceOnUse" color-interpolation-filters="sRGB">
<feFlood flood-opacity="0" result="BackgroundImageFix"/>
<feColorMatrix in="SourceAlpha" type="matrix" values="0 0 0 0 0 0 0 0 0 0 0 0 0 0 0 0 0 0 127 0" result="hardAlpha"/>
<feOffset dy="4"/>
<feGaussianBlur stdDeviation="2"/>
<feColorMatrix type="matrix" values="0 0 0 0 0.701961 0 0 0 0 0.827451 0 0 0 0 1 0 0 0 1 0"/>
<feBlend mode="normal" in2="BackgroundImageFix" result="effect1_dropShadow_1_2319"/>
<feBlend mode="normal" in="SourceGraphic" in2="effect1_dropShadow_1_2319" result="shape"/>
</filter>
</defs>
</svg>
